<svg width="450" height="208" viewBox="0 0 450 208" fill="none" xmlns="http://www.w3.org/2000/svg">
<g clip-path="url(#clip0_1071_10763)">
<path d="M554.706 6.86864C517.613 22.2401 494.053 41.2144 479.321 55.8464C464.425 70.643 454.806 84.7445 433.061 97.5772C409.092 111.775 391.304 114.453 384.123 115.064C374.167 115.907 374.285 114.299 357.535 114.244C325.36 114.137 321.16 120.05 306.097 117.995C281.121 114.591 282.559 96.9598 254.327 86.8546C233.88 79.5321 203.498 78.1771 181.147 92.8727C160.099 106.713 162.761 123.876 139.158 133.911C129.462 138.032 120.462 138.553 102.466 139.593C79.4125 140.955 62.9556 138.839 56.4701 138.319C37.2544 136.767 8.43928 141.09 -31.8884 168.956" stroke="#CE731B" stroke-width="0.403584" stroke-miterlimit="10"/>
<path d="M553.292 1.45625C517.297 15.9911 492.752 34.1971 476.523 49.6747C463.373 62.3526 454.174 74.5976 439.687 85.856C436.517 88.3143 433.142 90.7916 429.419 93.1874C405.956 108.275 388.726 112.475 381.463 114.005C371.723 116.061 371.379 114.994 354.976 114.981C343.417 114.978 335.335 115.445 329.148 116.032C318.632 117.033 313.663 118.45 304.591 116.84C301.21 116.251 297.899 115.268 294.722 113.909C280.031 107.632 276.468 94.8997 253.105 87.6119C232.767 81.2675 202.947 81.0473 180.998 95.5699C179.259 96.7217 177.581 97.9638 175.968 99.2916C159.702 112.7 159.75 127.2 139.011 136.053C136.827 136.989 134.581 137.774 132.288 138.402C124.59 140.539 116.095 141.077 102.619 141.861C80.2836 143.127 64.0871 141.066 56.9334 140.486C51.6994 140.078 46.4505 140.12 41.2419 140.61C23.2032 142.258 -0.737566 149.424 -31.2076 169.469" stroke="#CE731B" stroke-width="0.403584" stroke-miterlimit="10"/>
<path d="M551.722 -4.41996C516.836 9.28641 491.252 26.6531 473.585 43.0822C459.554 56.1244 449.942 68.9883 435.855 80.4617C432.642 83.0868 429.301 85.7724 425.612 88.3367C402.659 104.321 386.192 110.593 378.633 112.488C368.89 114.916 368.292 115.232 352.26 115.259C341.032 115.27 332.89 115.452 326.723 115.722C316.337 116.193 311.574 117.135 302.952 115.209C299.661 114.458 296.446 113.371 293.354 111.966C279.074 105.628 274.717 93.9745 251.715 87.8901C231.489 82.5315 202.232 83.4473 180.684 97.7955C178.867 99.0327 177.202 100.222 175.692 101.494C158.88 115.233 158.661 129.15 138.684 137.686C136.519 138.622 134.293 139.41 132.02 140.044C124.207 142.263 115.74 142.853 102.576 143.57C80.9611 144.766 65.0312 142.738 57.2228 142.161C52.031 141.758 46.8248 141.782 41.6545 142.232C23.7388 143.749 -0.226332 150.469 -30.6679 169.482" stroke="#CE731B" stroke-width="0.403584" stroke-miterlimit="10"/>
<path d="M550.013 -10.6749C516.23 2.17672 489.649 18.7737 470.501 36.0748C455.629 49.5204 445.576 62.9778 431.904 74.6673C428.642 77.4608 425.327 80.3504 421.686 83.0854C399.239 99.9519 383.177 107.09 375.687 110.576C366.42 114.884 365.088 115.075 349.422 115.145C338.518 115.185 330.314 115.076 324.137 115.039C313.889 114.983 309.316 115.442 301.147 113.206C297.967 112.283 294.863 111.088 291.868 109.636C278 103.244 272.817 92.6883 250.225 87.8003C230.087 83.4362 201.415 85.4755 180.272 99.6534C178.473 100.885 176.819 102.071 175.314 103.322C157.979 117.417 157.468 130.731 138.284 139.004C136.136 139.941 133.928 140.732 131.674 141.372C123.748 143.681 115.283 144.316 102.457 144.992C81.5769 146.12 65.9043 144.135 57.4317 143.51C52.2764 143.127 47.1086 143.137 41.9712 143.541C24.179 144.926 0.188097 151.193 -30.2167 169.176" stroke="#CE731B" stroke-width="0.403584" stroke-miterlimit="10"/>
<path d="M548.303 -16.9402C515.62 -4.93091 488.052 10.8791 467.419 29.0593C451.7 42.9156 441.215 56.9701 427.941 68.8666C424.636 71.8267 421.356 74.9243 417.75 77.8276C395.803 95.5582 380.365 104.12 372.728 108.646C363.705 113.996 361.894 114.894 346.571 115.014C335.961 115.073 327.736 114.679 321.567 114.348C311.459 113.772 307.08 113.732 299.359 111.195C296.296 110.102 293.303 108.802 290.4 107.304C276.944 100.872 270.931 91.4099 248.732 87.6852C228.685 84.3227 200.602 87.4781 179.857 101.481C178.081 102.706 176.438 103.888 174.935 105.125C157.069 119.571 156.258 132.216 137.873 140.264C135.74 141.194 133.551 141.988 131.317 142.642C123.288 145.031 114.861 145.707 102.329 146.356C82.1677 147.408 66.7564 145.458 57.6253 144.804C52.5083 144.428 47.3794 144.422 42.2769 144.785C24.6007 146.035 0.58804 151.86 -29.7892 168.8" stroke="#CE731B" stroke-width="0.403584" stroke-miterlimit="10"/>
<path d="M547.263 -20.9471C515.683 -9.78632 487.122 5.22423 465.01 24.2722C448.455 38.536 437.538 53.1999 424.657 65.2732C421.317 68.4023 418.052 71.6861 414.493 74.7724C393.06 93.3539 378.22 103.311 370.473 108.909C361.676 115.257 359.367 116.922 344.426 117.072C336.173 117.146 327.912 116.724 319.687 115.807C309.705 114.722 305.526 114.169 298.282 111.356C295.116 110.119 292.426 108.585 289.592 107.163C276.555 100.718 269.695 92.3147 247.917 89.7799C227.947 87.4323 200.465 91.6927 180.125 105.51C178.366 106.73 176.736 107.908 175.241 109.129C156.833 123.902 155.755 135.974 138.144 143.709C136.029 144.633 133.859 145.427 131.647 146.087C123.499 148.546 115.106 149.284 102.913 149.911C83.4853 150.903 68.327 148.979 58.544 148.294C53.4621 147.928 48.3692 147.909 43.2992 148.236C25.7462 149.347 1.71591 154.715 -28.6273 170.614" stroke="#CE731B" stroke-width="0.403584" stroke-miterlimit="10"/>
<path d="M546.601 -23.7867C516.136 -13.4665 486.584 0.747362 462.986 20.6473C445.595 35.3146 434.263 50.592 421.75 62.8007C418.371 66.1058 415.135 69.577 411.612 72.8352C390.659 92.2535 376.41 103.598 368.563 110.276C360 117.584 357.209 120.042 342.631 120.236C334.462 120.345 326.285 119.741 318.187 118.43C308.358 116.841 304.353 115.771 297.559 112.638C294.546 111.261 291.985 109.588 289.161 108.137C276.523 101.636 268.846 94.4077 247.483 92.9928C227.582 91.6757 200.705 97.0253 180.772 110.661C179.037 111.872 177.424 113.044 175.925 114.253C156.971 129.33 155.603 140.814 138.786 148.214C136.689 149.139 134.538 149.936 132.344 150.601C124.094 153.137 115.718 153.929 103.847 154.494C85.147 155.407 70.2539 153.527 59.8041 152.802C54.7613 152.45 49.7087 152.416 44.6751 152.702C27.2403 153.676 3.18753 158.586 -27.1183 173.449" stroke="#CE731B" stroke-width="0.403584" stroke-miterlimit="10"/>
<path d="M545.907 -26.6618C516.548 -17.2053 486.026 -3.76683 460.931 16.988C442.711 32.0627 430.974 47.9631 418.84 60.3429C415.426 63.8359 412.208 67.4981 408.724 70.9141C388.259 91.1527 374.581 103.863 366.665 111.656C358.265 119.92 355.055 123.17 340.845 123.407C332.738 123.522 324.626 122.707 316.658 120.979C306.998 118.895 303.153 117.286 296.816 113.878C293.973 112.348 291.534 110.558 288.72 109.059C276.489 102.545 267.963 96.4486 247.028 96.1608C227.196 95.887 200.938 102.313 181.427 115.75C179.709 116.954 178.108 118.123 176.619 119.321C157.132 134.745 155.509 145.61 139.459 152.751C137.38 153.67 135.249 154.469 133.077 155.143C124.723 157.791 116.368 158.603 104.822 159.117C86.8493 159.972 72.2214 158.115 61.1106 157.369C56.1039 157.022 51.088 156.971 46.0878 157.215C28.7847 158.075 4.70955 162.528 -25.5609 176.329" stroke="#CE731B" stroke-width="0.403584" stroke-miterlimit="10"/>
<path d="M545.215 -29.5497C516.961 -20.942 485.459 -8.2882 458.878 13.3173C439.825 28.8008 427.684 45.3299 415.912 57.8467C412.469 61.5057 409.256 65.3426 405.833 68.9624C385.849 90.0226 372.732 104.101 364.752 113.007C356.524 122.216 352.894 126.271 339.046 126.551C331.005 126.674 322.962 125.668 315.142 123.56C305.601 120.991 301.97 118.827 296.089 115.144C293.408 113.458 291.084 111.567 288.286 110.017C276.46 103.484 267.101 98.533 246.59 99.3532C226.82 100.143 201.179 107.619 182.058 120.88C180.358 122.078 178.769 123.242 177.286 124.418C157.247 140.148 155.367 150.429 140.094 157.282C138.03 158.196 135.918 158.997 133.767 159.682C125.308 162.421 116.948 163.274 105.743 163.747C88.5055 164.527 74.133 162.702 62.3653 161.928C57.3955 161.583 52.4168 161.509 47.4507 161.708C30.2599 162.413 6.17011 166.434 -24.0668 179.188" stroke="#CE731B" stroke-width="0.403584" stroke-miterlimit="10"/>
<path d="M544.527 -32.423C517.382 -24.6454 484.891 -12.7657 456.822 9.68355C436.915 25.5891 424.407 42.7412 412.981 55.3866C409.509 59.2313 406.308 63.2407 402.928 67.0301C383.426 88.8913 370.86 104.333 362.833 114.378C354.744 124.508 350.719 129.386 337.239 129.708C329.252 129.823 321.272 128.61 313.612 126.118C304.22 123.074 300.77 120.339 295.349 116.387C292.829 114.546 290.639 112.553 287.82 110.958C276.389 104.416 266.199 100.648 246.111 102.536C226.407 104.4 201.386 112.911 182.665 125.986C180.988 127.177 179.411 128.336 177.92 129.468C157.337 145.508 155.195 155.208 140.705 161.756C138.658 162.678 136.56 163.484 134.421 164.168C125.843 166.951 117.542 167.884 106.642 168.346C90.1344 169.053 76.0232 167.26 63.5929 166.458C59.1008 166.165 54.1835 166.026 48.7941 166.215C31.7293 166.789 7.61715 170.353 -22.5784 182.066" stroke="#CE731B" stroke-width="0.403584" stroke-miterlimit="10"/>
<path d="M543.865 -35.2113C517.852 -28.2959 484.375 -17.1975 454.806 6.09257C434.096 22.4031 421.179 40.2043 410.092 52.9741C406.596 57.0024 403.4 61.1803 400.065 65.151C381.022 87.8199 368.995 104.62 360.959 115.785C353.021 126.872 348.595 132.534 335.477 132.9C327.535 133.007 319.612 131.595 312.117 128.739C302.861 125.219 299.637 121.893 294.644 117.696C292.285 115.699 290.216 113.603 287.431 111.952C276.398 105.413 265.371 102.789 245.719 105.765C226.067 108.741 201.676 118.256 183.361 131.144C181.702 132.329 180.136 133.484 178.657 134.611C157.525 150.964 155.119 160.082 141.392 166.34C139.368 167.259 137.294 168.063 135.179 168.748C126.479 171.628 118.215 172.595 107.661 172.988C91.8779 173.63 78.0319 171.86 64.941 171.037C60.4707 170.751 55.5907 170.607 50.2504 170.747C33.3116 171.189 9.17907 174.304 -20.9849 184.967" stroke="#CE731B" stroke-width="0.403584" stroke-miterlimit="10"/>
<path d="M543.208 -37.9596C518.278 -31.8969 483.858 -21.566 452.787 2.55812C431.223 19.27 417.965 37.7312 407.209 50.6014C403.686 54.821 400.491 59.1611 397.192 63.3167C378.621 86.7947 367.121 104.937 359.093 117.253C351.261 129.238 346.452 135.757 333.741 136.146C325.3 136.405 316.815 134.099 310.653 131.414C301.531 127.432 298.477 123.52 293.964 119.061C291.779 116.904 289.824 114.708 287.053 113.001C276.417 106.478 264.58 105.022 245.343 109.059C225.783 113.145 201.98 123.657 184.071 136.358C182.435 137.535 180.881 138.686 179.409 139.811C157.734 156.479 155.072 165.014 142.134 170.967C140.128 171.885 138.072 172.692 135.976 173.384C127.186 176.357 118.934 177.359 108.672 177.719C93.6181 178.29 80.0508 176.544 66.2977 175.695C61.851 175.421 57.0045 175.26 51.723 175.362C34.9024 175.668 10.7496 178.334 -19.369 187.97" stroke="#CE731B" stroke-width="0.403584" stroke-miterlimit="10"/>
<path d="M542.568 -40.6728C518.74 -35.4615 483.399 -25.8315 450.788 -0.934145C428.463 16.2484 414.77 35.2997 404.339 48.2919C400.803 52.705 397.59 57.2067 394.361 61.536C376.227 85.7941 365.263 105.326 357.229 118.746C349.505 131.653 344.365 138.972 331.971 139.426C323.84 139.705 315.314 137.151 309.163 134.122C300.174 129.677 297.356 125.166 293.262 120.458C291.233 118.148 289.409 115.858 286.645 114.097C276.397 107.56 263.746 107.318 244.913 112.36C225.421 117.583 202.23 129.063 184.728 141.584C183.107 142.751 181.566 143.897 180.107 145.022C157.874 161.991 154.958 169.957 142.799 175.609C140.812 176.527 138.777 177.336 136.701 178.032C127.805 181.09 119.567 182.133 109.628 182.457C95.3113 182.96 81.9839 181.219 67.5705 180.368C63.1437 180.095 58.3422 179.933 53.1059 179.995C36.4094 180.163 12.2364 182.38 -17.8524 190.962" stroke="#CE731B" stroke-width="0.403584" stroke-miterlimit="10"/>
<path d="M541.941 -43.3432C519.224 -38.9724 482.899 -30.121 448.801 -4.38265C425.644 13.2072 411.589 32.9309 401.477 46.0073C397.923 50.6017 394.715 55.2714 391.526 59.7834C373.839 84.8311 363.375 105.738 355.386 120.283C347.76 134.121 342.274 142.27 330.27 142.754C322.444 143.061 313.868 140.254 307.736 136.865C298.868 131.963 296.283 126.84 292.629 121.883C290.788 119.403 289.051 117.028 286.309 115.214C276.409 108.703 262.755 109.068 244.529 115.721C225.368 122.715 202.526 134.528 185.424 146.864C183.822 148.024 182.295 149.166 180.844 150.288C158.034 167.524 154.891 174.959 143.509 180.31C141.539 181.225 139.521 182.034 137.465 182.735C128.46 185.871 120.224 186.974 110.64 187.265C97.0663 187.658 83.9652 185.919 68.9073 185.075C64.5022 184.809 59.7362 184.636 54.5567 184.654C37.9784 184.686 13.7852 186.455 -16.264 193.993" stroke="#CE731B" stroke-width="0.403584" stroke-miterlimit="10"/>
<path d="M541.348 -45.9908C519.738 -42.4517 482.431 -34.392 446.849 -7.8071C422.859 10.1899 408.475 30.5685 398.662 43.7683C395.078 48.5614 391.868 53.381 388.745 58.094C371.499 83.9524 361.563 106.183 353.581 121.872C346.026 136.636 340.171 145.583 328.525 146.118C321.01 146.452 312.387 143.398 306.267 139.651C297.526 134.304 295.19 128.565 291.941 123.377C290.278 120.73 288.642 118.272 285.912 116.396C276.43 109.888 262.212 112.038 244.164 119.112C224.897 126.644 202.846 140.019 186.149 152.169C184.596 153.318 183.042 154.468 181.611 155.578C158.26 173.13 154.851 179.994 144.244 185.038C142.294 185.955 140.297 186.766 138.26 187.469C129.15 190.691 120.957 191.826 111.669 192.076C98.8048 192.436 85.9978 190.75 70.2742 189.848C65.8851 189.59 61.1583 189.438 56.0085 189.387C39.5658 189.318 15.3371 190.611 -14.6493 197.1" stroke="#CE731B" stroke-width="0.403584" stroke-miterlimit="10"/>
<path d="M540.711 -48.5912C520.206 -45.9088 481.931 -38.618 444.852 -11.1893C420.007 7.22198 405.321 28.2795 395.817 41.5536C392.245 46.5383 388.99 51.5146 385.922 56.3926C369.054 82.9887 359.697 106.659 351.78 123.452C344.337 139.168 338.16 148.897 326.83 149.477C319.626 149.838 310.944 146.541 304.845 142.441C296.212 136.615 294.149 130.292 291.303 124.861C289.831 122.036 288.288 119.504 285.577 117.57C276.472 111.078 261.478 114.473 243.82 122.507C224.665 131.191 203.176 145.515 186.892 157.484C185.339 158.633 183.826 159.769 182.38 160.831C158.482 178.7 154.829 185.006 144.994 189.752C143.045 190.663 141.049 191.47 139.013 192.168C130.58 195.196 121.686 196.784 112.687 196.868C100.551 197.156 88.0048 195.501 71.6195 194.572C67.2541 194.326 62.5627 194.143 57.4872 194.063C33.7963 193.802 10.1829 195.841 -13.0328 200.152" stroke="#CE731B" stroke-width="0.403584" stroke-miterlimit="10"/>
<path d="M540.109 -51.183C520.708 -49.3427 481.453 -42.83 442.892 -14.5556C417.238 4.25505 402.197 25.9681 392.966 39.3612C352.007 98.8447 349.972 151.472 325.104 152.875C318.212 153.263 309.471 149.724 303.396 145.263C290.426 135.745 293.054 124.589 285.209 118.78C265.974 104.533 212.936 143.983 183.127 166.152C154.063 187.769 154.027 191.786 139.831 196.928C115.056 205.918 98.6554 199.7 58.9594 198.796C35.3684 198.293 11.8191 199.791 -11.4443 203.276" stroke="#CE731B" stroke-width="0.403584" stroke-miterlimit="10"/>
<path d="M539.62 -52.8465C519.616 -51.2172 481.673 -44.6046 444.81 -17.5492C419.373 1.15222 405.229 22.7531 395.254 36.9251C355.387 93.4894 352.9 141.896 328.246 145.435C318.614 146.82 308.355 146.739 300.731 144.055C285.749 138.775 287.599 129.236 278.265 124.179C257.827 113.096 207.917 148.556 179.404 169.269C151.639 189.483 151.331 192.817 135.927 197.026C110.331 204.021 94.9073 198.801 57.4389 197.731C34.0635 197.067 10.7254 198.645 -12.2665 202.445" stroke="#CE731B" stroke-width="0.403584" stroke-miterlimit="10"/>
<path d="M539.107 -54.5798C505.667 -52.0973 473.72 -40.3516 446.707 -20.6077C421.486 -2.02154 408.278 19.468 397.52 34.4245C358.85 88.147 355.827 133.066 331.361 137.928C318.945 140.391 307.566 143.618 298.042 142.778C281.709 141.358 282.373 133.843 271.297 129.512C250.142 121.251 202.878 153.069 175.654 172.327C149.242 191.119 148.675 193.832 131.997 197.062C105.684 202.166 91.119 197.779 55.896 196.597C32.7439 195.775 9.62265 197.43 -13.0875 201.536" stroke="#CE731B" stroke-width="0.403584" stroke-miterlimit="10"/>
<path d="M538.133 -57.668C505.569 -55.5591 474.413 -44.2583 448.142 -25.0266C423.145 -6.55545 410.868 14.8201 399.333 30.5505C361.992 81.4634 356.796 118.754 334.031 129.023C319.79 135.446 306.465 138.868 294.901 140.113C277.43 142.002 276.865 137 263.877 133.463C242.376 127.608 197.362 156.131 171.467 173.985C146.342 191.305 145.617 193.489 127.633 195.697C100.651 199.012 86.901 195.361 53.9118 194.064C30.9787 193.077 8.06744 194.809 -14.3601 199.226" stroke="#CE731B" stroke-width="0.403584" stroke-miterlimit="10"/>
<path d="M536.608 -62.3733C504.925 -60.6353 474.565 -49.7765 449.043 -31.0548C424.268 -12.6956 412.928 8.55853 400.609 25.0547C364.654 73.1997 358.624 107.347 336.163 118.472C319.475 126.734 305.306 135.779 291.234 135.797C271.871 135.822 271.09 135.648 255.934 135.765C235.177 128.102 191.332 157.555 166.749 173.985C142.945 189.866 142.058 191.528 122.739 192.664C95.1405 194.285 82.1618 191.253 51.4158 189.866C28.703 188.716 6.00077 190.528 -16.1386 195.256" stroke="#CE731B" stroke-width="0.403584" stroke-miterlimit="10"/>
<path d="M535.047 -67.1893C504.244 -65.8273 474.672 -55.4272 449.88 -37.2377C425.323 -19.0027 414.933 2.14589 401.821 19.4033C367.319 64.8254 360.552 96.094 338.272 107.754C319.063 117.798 303.959 128.874 287.503 131.317C266.283 134.469 264.905 136.299 247.926 137.9C226.814 131.918 185.273 158.862 162.01 173.813C139.526 188.255 138.49 189.457 117.825 189.46C89.6007 189.482 77.3974 186.962 48.8928 185.499C26.3996 184.186 3.90332 186.077 -17.9441 191.116" stroke="#CE731B" stroke-width="0.403584" stroke-miterlimit="10"/>
<path d="M533.453 -72.0989C503.543 -71.0998 474.77 -61.151 450.718 -43.4918C426.382 -25.3751 416.952 -4.33593 403.035 13.6799C370.017 56.4217 362.561 84.9558 340.307 96.9872C318.609 108.718 301.079 118.256 283.775 126.77C262.409 137.283 258.726 136.888 239.922 139.967C218.415 135.636 179.186 160.077 157.198 173.59C136.034 186.593 134.861 187.371 112.837 186.204C84.0617 184.677 72.5641 182.592 46.3239 181.067C24.0499 179.594 1.75705 181.565 -19.7952 186.91" stroke="#CE731B" stroke-width="0.403584" stroke-miterlimit="10"/>
<path d="M531.838 -77.0723C508.088 -76.654 478.125 -69.5764 451.514 -49.8099C427.362 -31.8658 418.939 -10.872 404.213 7.88988C372.737 47.9867 364.603 73.8819 342.347 86.1422C318.079 99.5049 299.084 111.077 280.007 122.156C257.161 135.431 253.047 140.96 231.879 141.964C209.947 143.005 173.07 161.2 152.393 173.284C132.55 184.854 131.234 185.23 107.857 182.873C78.467 179.876 67.7276 178.132 43.7052 176.577C28.7717 175.611 6.57829 175.189 -21.6959 182.648" stroke="#CE731B" stroke-width="0.403584" stroke-miterlimit="10"/>
<path d="M530.193 -82.1339C505.823 -81.9078 477.196 -74.753 452.289 -56.2118C428.355 -38.3922 420.916 -17.4761 405.363 2.01727C375.47 39.4964 366.735 62.7947 344.353 75.2177C317.486 90.1362 296.999 103.796 276.217 117.456C251.823 133.494 246.983 141.363 223.815 143.873C201.724 146.247 166.949 162.282 147.554 172.894C129.022 183.035 127.556 183.104 102.844 179.453C72.8518 175.029 62.8687 173.559 41.0892 171.994C26.3368 170.932 4.44111 170.416 -23.596 178.285" stroke="#CE731B" stroke-width="0.403584" stroke-miterlimit="10"/>
<path d="M528.528 -87.2538C503.512 -87.244 476.247 -79.9878 453.042 -62.6776C429.327 -44.9826 422.885 -24.1419 406.492 -3.91981C378.209 30.9726 368.864 51.7042 346.344 64.2283C316.826 80.6454 294.857 96.4409 272.407 112.691C246.415 131.5 240.849 141.562 215.73 145.714C193.442 149.4 160.797 163.267 142.702 172.434C125.518 181.149 123.858 180.917 97.8151 175.964C67.1947 170.149 57.9894 168.901 38.4525 167.344C23.8735 166.182 2.27956 165.545 -25.5146 173.863" stroke="#CE731B" stroke-width="0.403584" stroke-miterlimit="10"/>
<path d="M526.838 -92.4499C501.23 -92.6276 475.269 -85.2911 453.772 -69.2134C430.277 -51.637 424.849 -30.8576 407.597 -9.92729C380.958 22.4017 372.341 43.3535 348.305 53.1719C314.231 67.094 292.674 89.0154 268.574 107.855C240.96 129.434 235.351 147.93 207.623 147.482C184.453 147.086 154.659 164.206 137.821 171.903C121.969 179.177 120.129 178.686 92.7608 172.411C61.502 165.235 53.0919 164.143 35.7936 162.624C21.3919 161.353 0.0938375 160.616 -27.4573 169.362" stroke="#CE731B" stroke-width="0.403584" stroke-miterlimit="10"/>
<path d="M525.09 -97.8153C498.859 -98.1968 474.244 -90.7536 454.427 -75.9522C431.158 -58.4966 426.764 -37.7587 408.633 -16.141C383.637 13.6585 374.268 31.6289 350.204 41.9082C313.577 57.5673 290.397 81.3838 264.667 102.811C235.408 127.166 229.307 146.912 199.443 149.038C175.754 150.72 148.399 164.904 132.879 171.158C118.358 177.011 116.294 176.283 87.6437 168.64C55.7235 160.129 48.1222 159.158 33.0623 157.694C18.8418 156.308 -2.15638 155.484 -29.4703 164.66" stroke="#CE731B" stroke-width="0.403584" stroke-miterlimit="10"/>
<path d="M523.226 -103.519C496.38 -104.107 473.101 -96.5809 454.994 -82.9664C431.946 -65.6304 428.611 -44.9167 409.577 -22.6313C386.292 4.6362 376.109 19.6264 352.005 30.3696C312.833 47.8275 288.015 73.4696 260.674 97.4769C229.746 124.634 222.922 145.325 191.178 150.299C167.041 154.081 142.089 165.335 127.842 170.128C114.666 174.563 112.362 173.608 82.4323 164.584C49.8435 154.757 43.0452 153.867 30.2469 152.472C16.202 150.952 -4.52524 150.07 -31.5666 159.664" stroke="#CE731B" stroke-width="0.403584" stroke-miterlimit="10"/>
<path d="M521.33 -109.323C493.861 -110.114 471.923 -102.494 455.515 -90.115C432.69 -72.8928 430.443 -52.173 410.475 -29.2566C388.894 -4.48462 377.925 7.4979 353.766 18.6965C312.095 38.0103 285.58 65.4302 256.639 92.0127C224.006 121.974 216.28 143.399 182.872 151.426C158.355 157.318 135.735 165.646 122.768 168.957C110.946 171.985 108.377 170.825 77.1835 160.389C43.8931 149.263 37.9677 148.374 27.3879 147.114C13.5246 145.439 -6.87554 144.493 -33.7064 154.531" stroke="#CE731B" stroke-width="0.403584" stroke-miterlimit="10"/>
<path d="M519.259 -115.641C491.17 -116.629 470.601 -108.891 455.866 -97.7723C433.298 -80.6166 432.149 -59.9016 411.202 -36.3943C391.343 -14.1036 379.579 -5.13775 355.351 6.51297C311.224 27.7329 282.962 56.8715 252.459 86.0212C218.17 118.769 208.345 138.32 174.423 152.019C150.249 161.774 129.246 165.42 117.546 167.253C107.065 168.892 104.227 167.515 71.7896 155.671C37.7906 143.242 32.74 142.379 24.3922 141.237C10.7145 139.36 -9.39705 138.409 -35.984 148.873" stroke="#CE731B" stroke-width="0.403584" stroke-miterlimit="10"/>
<path d="M517.21 -121.894C488.506 -123.087 469.27 -115.259 456.23 -105.368C433.889 -88.3343 433.93 -67.5152 411.949 -43.4715C393.823 -23.6442 381.266 -17.7067 356.962 -5.60803C310.403 17.5688 280.361 48.3836 248.245 80.102C212.25 115.664 201.449 136.883 165.94 152.681C141.274 163.64 122.724 165.309 112.303 165.623C103.159 165.881 100.038 164.305 66.3727 151.021C31.6418 137.317 27.4891 136.415 21.3594 135.427C7.88282 133.257 -11.9462 132.402 -38.2952 143.295" stroke="#CE731B" stroke-width="0.403584" stroke-miterlimit="10"/>
<path d="M515.159 -128.153C485.853 -129.549 467.901 -121.622 456.599 -112.964C434.503 -96.0582 435.782 -75.0451 412.695 -50.5476C396.309 -33.1581 382.957 -30.2729 358.565 -17.7227C309.623 7.46049 277.761 39.9241 244.062 74.1811C206.36 112.549 194.543 135.474 157.49 153.337C132.226 165.513 116.218 165.225 107.077 163.987C99.2773 162.929 95.8804 161.092 60.9735 146.367C25.503 131.385 22.2715 130.416 18.3574 129.616C5.12311 126.905 -14.4683 126.383 -40.5794 137.703" stroke="#CE731B" stroke-width="0.403584" stroke-miterlimit="10"/>
</g>
<defs>
<clipPath id="clip0_1071_10763">
<rect width="450" height="208" fill="white"/>
</clipPath>
</defs>
</svg>
